<svg width="24" height="25" viewBox="0 0 24 25" fill="none" xmlns="http://www.w3.org/2000/svg">
<path d="M23.9243 23.0411C23.9243 21.9574 23.0907 21.1238 22.007 21.1238H1.91728C0.833599 21.1238 0 22.0408 0 23.0411C0 24.1248 0.833599 24.9584 1.91728 24.9584H22.007C23.0073 24.9584 23.9243 24.1248 23.9243 23.0411Z" fill="#989A9D"/>
<path d="M22.007 0.867398C19.923 -0.633081 17.0888 -0.132922 15.5883 1.95108L8.66941 11.6208C8.50269 11.7875 8.41933 12.0376 8.41933 12.2877L7.58574 18.5397C7.50238 19.1232 7.75246 19.6234 8.16926 19.9568C8.50269 20.2069 8.91949 20.2903 9.33629 20.2069C9.50301 20.2069 9.58637 20.1235 9.75309 20.1235L15.5883 17.3727C15.8384 17.2893 16.0051 17.1226 16.1718 16.8725L23.0907 7.20275C24.5078 5.28547 24.0076 2.36788 22.007 0.867398ZM13.8377 14.8719L10.9201 16.289L11.3369 13.2047L16.0051 6.70259L18.5059 8.45315L13.8377 14.8719ZM20.5065 5.53555L20.2564 5.86899L17.7556 4.11843L18.0057 3.785C18.5059 3.11812 19.4228 2.9514 20.1731 3.45156C20.9233 3.95171 21.0067 4.86867 20.5065 5.53555Z" fill="#989A9D"/>
</svg>
