<svg width="26" height="26" viewBox="0 0 26 26" fill="none" xmlns="http://www.w3.org/2000/svg">
<path d="M10.8368 0H1.33376C0.583525 0 0 0.58352 0 1.33376V10.8368C0 11.5037 0.583525 12.1706 1.33376 12.1706H10.8368C11.587 12.1706 12.1706 11.587 12.1706 10.8368V1.33376C12.1706 0.58352 11.587 0 10.8368 0ZM9.25296 2.9176V9.25295H2.9176V2.9176H9.25296Z" fill="url(#paint0_linear_47_57)"/>
<path d="M24.5078 0H15.0048C14.2545 0 13.671 0.58352 13.671 1.33376V10.8368C13.671 11.5037 14.2545 12.1706 15.0048 12.1706H24.5078C25.258 12.1706 25.8416 11.587 25.8416 10.8368V1.33376C25.8416 0.58352 25.258 0 24.5078 0ZM22.924 2.9176V9.25295H16.5886V2.9176H22.924Z" fill="url(#paint1_linear_47_57)"/>
<path d="M10.8368 13.6711H1.33376C0.583525 13.6711 0 14.2546 0 15.0048V24.5078C0 25.1747 0.583525 25.8416 1.33376 25.8416H10.8368C11.587 25.8416 12.1706 25.2581 12.1706 24.5078V15.0048C12.1706 14.2546 11.587 13.6711 10.8368 13.6711ZM9.25296 16.5886V22.924H2.9176V16.5886H9.25296Z" fill="url(#paint2_linear_47_57)"/>
<path d="M24.5078 13.6711H15.0048C14.2545 13.6711 13.671 14.2546 13.671 15.0048V24.5078C13.671 25.1747 14.2545 25.8416 15.0048 25.8416H24.5078C25.258 25.8416 25.8416 25.2581 25.8416 24.5078V15.0048C25.8416 14.2546 25.258 13.6711 24.5078 13.6711ZM22.924 16.5886V22.924H16.5886V16.5886H22.924Z" fill="url(#paint3_linear_47_57)"/>
<defs>
<linearGradient id="paint0_linear_47_57" x1="13.7177" y1="6.2001" x2="-2.57851" y2="6.2001" gradientUnits="userSpaceOnUse">
<stop stop-color="#FD814A"/>
<stop offset="1" stop-color="#FC5C4C"/>
</linearGradient>
<linearGradient id="paint1_linear_47_57" x1="27.3887" y1="6.2001" x2="11.0925" y2="6.2001" gradientUnits="userSpaceOnUse">
<stop stop-color="#FD814A"/>
<stop offset="1" stop-color="#FC5C4C"/>
</linearGradient>
<linearGradient id="paint2_linear_47_57" x1="13.7177" y1="19.8711" x2="-2.57851" y2="19.8711" gradientUnits="userSpaceOnUse">
<stop stop-color="#FD814A"/>
<stop offset="1" stop-color="#FC5C4C"/>
</linearGradient>
<linearGradient id="paint3_linear_47_57" x1="27.3887" y1="19.8711" x2="11.0925" y2="19.8711" gradientUnits="userSpaceOnUse">
<stop stop-color="#FD814A"/>
<stop offset="1" stop-color="#FC5C4C"/>
</linearGradient>
</defs>
</svg>
